<svg width="171" height="18" viewBox="0 0 171 18" fill="none" xmlns="http://www.w3.org/2000/svg">
<path d="M2.46094 9.24219C2.46094 9.96094 2.55208 10.612 2.73438 11.1953C2.91667 11.7734 3.17188 12.2656 3.5 12.6719C3.83333 13.0781 4.23177 13.3932 4.69531 13.6172C5.16406 13.8359 5.67969 13.9453 6.24219 13.9453C6.73177 13.9453 7.16927 13.8568 7.55469 13.6797C7.94531 13.5026 8.28125 13.2708 8.5625 12.9844C8.84375 12.6927 9.07031 12.3646 9.24219 12C9.41406 11.6354 9.52865 11.2656 9.58594 10.8906H11.0703C11.0391 11.224 10.9661 11.5651 10.8516 11.9141C10.7422 12.2578 10.5911 12.5938 10.3984 12.9219C10.2109 13.2448 9.98438 13.5521 9.71875 13.8438C9.45312 14.1302 9.14583 14.3802 8.79688 14.5938C8.45312 14.8073 8.06771 14.9766 7.64062 15.1016C7.21354 15.2266 6.7474 15.2891 6.24219 15.2891C5.89323 15.2891 5.51823 15.2526 5.11719 15.1797C4.72135 15.1068 4.32552 14.9844 3.92969 14.8125C3.53906 14.6406 3.16146 14.4115 2.79688 14.125C2.4375 13.8333 2.11979 13.4688 1.84375 13.0312C1.56771 12.5938 1.34635 12.0781 1.17969 11.4844C1.01302 10.8854 0.929688 10.1901 0.929688 9.39844C0.929688 8.6224 1.0026 7.92969 1.14844 7.32031C1.29948 6.71094 1.5026 6.17969 1.75781 5.72656C2.01823 5.26823 2.32031 4.88021 2.66406 4.5625C3.01302 4.24479 3.38542 3.98698 3.78125 3.78906C4.17708 3.59115 4.58854 3.44792 5.01562 3.35938C5.44271 3.27083 5.86719 3.22656 6.28906 3.22656C6.8099 3.22656 7.28385 3.28125 7.71094 3.39062C8.14323 3.49479 8.52865 3.64062 8.86719 3.82812C9.21094 4.01042 9.51042 4.22396 9.76562 4.46875C10.0208 4.71354 10.2344 4.97396 10.4062 5.25C10.5833 5.52083 10.7188 5.79948 10.8125 6.08594C10.9115 6.3724 10.9714 6.65104 10.9922 6.92188H9.49219C9.39323 6.55208 9.2474 6.22135 9.05469 5.92969C8.86198 5.63802 8.6276 5.39323 8.35156 5.19531C8.08073 4.99219 7.77344 4.83854 7.42969 4.73438C7.09115 4.625 6.72656 4.57031 6.33594 4.57031C5.7474 4.57031 5.21354 4.67969 4.73438 4.89844C4.26042 5.11719 3.85417 5.42969 3.51562 5.83594C3.17708 6.24219 2.91667 6.73438 2.73438 7.3125C2.55208 7.88542 2.46094 8.52865 2.46094 9.24219ZM19.8984 15H13.4297V17.0469H12.0859V13.75H13.1875C13.4167 13.1875 13.599 12.6146 13.7344 12.0312C13.8698 11.4427 13.974 10.8516 14.0469 10.2578C14.1198 9.65885 14.1667 9.05729 14.1875 8.45312C14.2083 7.84896 14.2188 7.24219 14.2188 6.63281H20.0625V13.75H21.2422V17.0469H19.8984V15ZM18.625 13.75V7.88281H15.5938C15.5573 8.35677 15.5182 8.84375 15.4766 9.34375C15.4401 9.84375 15.388 10.3464 15.3203 10.8516C15.2578 11.3516 15.1719 11.8464 15.0625 12.3359C14.9583 12.8255 14.8203 13.2969 14.6484 13.75H18.625ZM29.75 12.3281C29.6927 12.6927 29.5677 13.0495 29.375 13.3984C29.1823 13.7474 28.9297 14.0599 28.6172 14.3359C28.3047 14.612 27.9349 14.8333 27.5078 15C27.0859 15.1719 26.6172 15.2578 26.1016 15.2578C25.5391 15.2578 25.0182 15.1667 24.5391 14.9844C24.0651 14.7969 23.6536 14.5182 23.3047 14.1484C22.9609 13.7734 22.6901 13.3047 22.4922 12.7422C22.2943 12.1797 22.1953 11.5182 22.1953 10.7578C22.1953 10.2474 22.25 9.78646 22.3594 9.375C22.474 8.95833 22.625 8.58854 22.8125 8.26562C23.0052 7.9375 23.2266 7.65625 23.4766 7.42188C23.7266 7.18229 23.9896 6.98698 24.2656 6.83594C24.5469 6.67969 24.8333 6.5651 25.125 6.49219C25.4167 6.41406 25.6979 6.375 25.9688 6.375C26.5417 6.375 27.0651 6.46094 27.5391 6.63281C28.013 6.80469 28.4193 7.06771 28.7578 7.42188C29.1016 7.77083 29.3672 8.21094 29.5547 8.74219C29.7474 9.26823 29.8438 9.88802 29.8438 10.6016V11.3203H23.7266C23.7318 11.7266 23.7891 12.0964 23.8984 12.4297C24.0078 12.7578 24.1641 13.0391 24.3672 13.2734C24.5703 13.5078 24.8151 13.6901 25.1016 13.8203C25.3932 13.9453 25.7214 14.0078 26.0859 14.0078C26.4557 14.0078 26.7682 13.9557 27.0234 13.8516C27.2786 13.7474 27.4922 13.6146 27.6641 13.4531C27.8359 13.2917 27.974 13.112 28.0781 12.9141C28.1875 12.7161 28.2786 12.5208 28.3516 12.3281H29.75ZM28.3984 10.1719C28.388 9.76562 28.3255 9.40365 28.2109 9.08594C28.1016 8.76823 27.9453 8.5026 27.7422 8.28906C27.5443 8.07031 27.3047 7.90625 27.0234 7.79688C26.7422 7.68229 26.4297 7.625 26.0859 7.625C25.7578 7.625 25.4557 7.6901 25.1797 7.82031C24.9036 7.94531 24.6615 8.1224 24.4531 8.35156C24.2448 8.57552 24.0781 8.84375 23.9531 9.15625C23.8281 9.46354 23.7526 9.80208 23.7266 10.1719H28.3984ZM37.1641 7.88281H33.9609L33.8984 9.89062C33.8672 10.9062 33.7891 11.7552 33.6641 12.4375C33.5391 13.1146 33.3672 13.6589 33.1484 14.0703C32.9349 14.4818 32.6745 14.7734 32.3672 14.9453C32.0599 15.1172 31.7083 15.2031 31.3125 15.2031C31.1667 15.2031 31.0391 15.1797 30.9297 15.1328C30.8255 15.0911 30.7448 15.0469 30.6875 15V13.7344C30.8906 13.8125 31.0703 13.8516 31.2266 13.8516C31.3359 13.8516 31.4401 13.8333 31.5391 13.7969C31.6432 13.7604 31.7396 13.6901 31.8281 13.5859C31.9219 13.4818 32.0078 13.3359 32.0859 13.1484C32.1641 12.9557 32.2318 12.7057 32.2891 12.3984C32.3516 12.0911 32.401 11.7188 32.4375 11.2812C32.4792 10.8438 32.5078 10.3229 32.5234 9.71875L32.5938 6.63281H38.6016V15H37.1641V7.88281ZM40.7031 9.14062C40.7188 8.63021 40.8151 8.20052 40.9922 7.85156C41.1693 7.4974 41.4089 7.21094 41.7109 6.99219C42.013 6.77344 42.3698 6.61719 42.7812 6.52344C43.1979 6.42448 43.651 6.375 44.1406 6.375C44.5469 6.375 44.9401 6.41667 45.3203 6.5C45.7057 6.58333 46.0469 6.71875 46.3438 6.90625C46.6406 7.08854 46.8776 7.32812 47.0547 7.625C47.237 7.91667 47.3281 8.27344 47.3281 8.69531V13.5625C47.3281 13.6979 47.3646 13.8151 47.4375 13.9141C47.5104 14.0078 47.6276 14.0547 47.7891 14.0547C47.862 14.0547 47.9375 14.0495 48.0156 14.0391C48.0938 14.0234 48.1745 14.0078 48.2578 13.9922V14.9844C48.138 15.0156 48.0182 15.0443 47.8984 15.0703C47.7839 15.0964 47.6458 15.1094 47.4844 15.1094C47.2344 15.1094 47.0182 15.0885 46.8359 15.0469C46.6589 15.0052 46.5078 14.9375 46.3828 14.8438C46.263 14.7448 46.1693 14.6198 46.1016 14.4688C46.0339 14.3125 45.9896 14.1224 45.9688 13.8984C45.7917 14.0911 45.6042 14.2708 45.4062 14.4375C45.2083 14.599 44.987 14.7422 44.7422 14.8672C44.4974 14.987 44.224 15.0807 43.9219 15.1484C43.6198 15.2214 43.2786 15.2578 42.8984 15.2578C42.5755 15.2578 42.2604 15.2057 41.9531 15.1016C41.651 14.9974 41.3776 14.8438 41.1328 14.6406C40.8932 14.4375 40.7005 14.1875 40.5547 13.8906C40.4089 13.5885 40.3359 13.2396 40.3359 12.8438C40.3359 12.4115 40.4089 12.0391 40.5547 11.7266C40.7005 11.4089 40.8906 11.1458 41.125 10.9375C41.3594 10.724 41.6276 10.5599 41.9297 10.4453C42.2318 10.3307 42.5391 10.2552 42.8516 10.2188L45.2031 9.92969C45.4271 9.90365 45.6016 9.81771 45.7266 9.67188C45.8568 9.52083 45.9219 9.28125 45.9219 8.95312C45.9219 8.44792 45.7552 8.08594 45.4219 7.86719C45.0938 7.64323 44.6198 7.53125 44 7.53125C43.3646 7.53125 42.8906 7.66667 42.5781 7.9375C42.2656 8.20312 42.0885 8.60417 42.0469 9.14062H40.7031ZM45.8906 10.7422C45.776 10.8255 45.6328 10.8958 45.4609 10.9531C45.2943 11.0052 45.1094 11.0495 44.9062 11.0859C44.7031 11.1224 44.487 11.1562 44.2578 11.1875C44.0286 11.2135 43.7995 11.2422 43.5703 11.2734C43.3099 11.3099 43.0703 11.362 42.8516 11.4297C42.6328 11.4974 42.4427 11.5859 42.2812 11.6953C42.1198 11.8047 41.9948 11.9375 41.9062 12.0938C41.8177 12.2448 41.7734 12.4245 41.7734 12.6328C41.7734 12.8724 41.8099 13.0833 41.8828 13.2656C41.9609 13.4479 42.0651 13.6016 42.1953 13.7266C42.3307 13.8516 42.4922 13.9453 42.6797 14.0078C42.8672 14.0703 43.0729 14.1016 43.2969 14.1016C43.4375 14.1016 43.599 14.0859 43.7812 14.0547C43.9635 14.0182 44.151 13.9661 44.3438 13.8984C44.5365 13.8307 44.724 13.7448 44.9062 13.6406C45.0938 13.5312 45.2604 13.401 45.4062 13.25C45.5521 13.099 45.6693 12.9271 45.7578 12.7344C45.8464 12.5417 45.8906 12.3255 45.8906 12.0859V10.7422ZM49.625 6.63281H51.0625V10.0078H54.9688V6.63281H56.4141V15H54.9688V11.2578H51.0625V15H49.625V6.63281ZM64.375 10.8047C64.375 10.3411 64.3229 9.91667 64.2188 9.53125C64.1146 9.14062 63.9583 8.80469 63.75 8.52344C63.5417 8.24219 63.2839 8.02344 62.9766 7.86719C62.6745 7.70573 62.3229 7.625 61.9219 7.625C61.5208 7.625 61.1693 7.70573 60.8672 7.86719C60.5651 8.02344 60.3099 8.24219 60.1016 8.52344C59.8932 8.80469 59.737 9.14062 59.6328 9.53125C59.5286 9.91667 59.4766 10.3411 59.4766 10.8047C59.4766 11.2734 59.5286 11.7057 59.6328 12.1016C59.737 12.4922 59.8932 12.8281 60.1016 13.1094C60.3099 13.3906 60.5651 13.612 60.8672 13.7734C61.1693 13.9297 61.5208 14.0078 61.9219 14.0078C62.3229 14.0078 62.6745 13.9297 62.9766 13.7734C63.2839 13.612 63.5417 13.3906 63.75 13.1094C63.9583 12.8281 64.1146 12.4922 64.2188 12.1016C64.3229 11.7057 64.375 11.2734 64.375 10.8047ZM65.8125 10.8047C65.8125 11.4922 65.724 12.112 65.5469 12.6641C65.3698 13.2109 65.1146 13.6771 64.7812 14.0625C64.4479 14.4479 64.0391 14.7448 63.5547 14.9531C63.0755 15.1562 62.5312 15.2578 61.9219 15.2578C61.3125 15.2578 60.7682 15.1562 60.2891 14.9531C59.8099 14.7448 59.4036 14.4479 59.0703 14.0625C58.737 13.6771 58.4818 13.2109 58.3047 12.6641C58.1276 12.112 58.0391 11.4922 58.0391 10.8047C58.0391 10.1276 58.1276 9.51562 58.3047 8.96875C58.4818 8.42188 58.737 7.95573 59.0703 7.57031C59.4036 7.1849 59.8099 6.89062 60.2891 6.6875C60.7682 6.47917 61.3125 6.375 61.9219 6.375C62.5312 6.375 63.0755 6.47917 63.5547 6.6875C64.0391 6.89062 64.4479 7.1849 64.7812 7.57031C65.1146 7.95573 65.3698 8.42188 65.5469 8.96875C65.724 9.51562 65.8125 10.1276 65.8125 10.8047ZM78.4688 12.0547C78.4479 12.2578 78.4062 12.4792 78.3438 12.7188C78.2865 12.9583 78.2005 13.1979 78.0859 13.4375C77.9714 13.6719 77.8229 13.8984 77.6406 14.1172C77.4635 14.3359 77.2448 14.5312 76.9844 14.7031C76.7292 14.8698 76.4271 15.0026 76.0781 15.1016C75.7292 15.2057 75.3307 15.2578 74.8828 15.2578C74.638 15.2578 74.3802 15.2266 74.1094 15.1641C73.8385 15.1068 73.5729 15.0078 73.3125 14.8672C73.0573 14.7266 72.8125 14.5469 72.5781 14.3281C72.349 14.1042 72.1458 13.8281 71.9688 13.5C71.7969 13.1719 71.6589 12.7917 71.5547 12.3594C71.4505 11.9219 71.3984 11.4219 71.3984 10.8594C71.3984 10.1667 71.4974 9.54427 71.6953 8.99219C71.8932 8.4349 72.1562 7.96354 72.4844 7.57812C72.8177 7.19271 73.2031 6.89583 73.6406 6.6875C74.0833 6.47917 74.5469 6.375 75.0312 6.375C75.4688 6.375 75.8542 6.42188 76.1875 6.51562C76.526 6.60938 76.8203 6.73438 77.0703 6.89062C77.3203 7.04688 77.5312 7.22917 77.7031 7.4375C77.875 7.64062 78.013 7.85677 78.1172 8.08594C78.2266 8.3099 78.3073 8.53906 78.3594 8.77344C78.4167 9.00781 78.4531 9.23177 78.4688 9.44531H77.125C77.0521 8.8776 76.8542 8.43229 76.5312 8.10938C76.2135 7.78646 75.7656 7.625 75.1875 7.625C74.7917 7.625 74.4453 7.70573 74.1484 7.86719C73.8568 8.02865 73.612 8.25521 73.4141 8.54688C73.2214 8.83333 73.0755 9.18229 72.9766 9.59375C72.8828 10 72.8359 10.4479 72.8359 10.9375C72.8359 11.4896 72.888 11.9661 72.9922 12.3672C73.0964 12.763 73.2448 13.0911 73.4375 13.3516C73.6302 13.6068 73.8646 13.7969 74.1406 13.9219C74.4219 14.0417 74.7396 14.1016 75.0938 14.1016C75.3438 14.1016 75.5807 14.0573 75.8047 13.9688C76.0286 13.875 76.2292 13.7422 76.4062 13.5703C76.5833 13.3932 76.7344 13.1771 76.8594 12.9219C76.9844 12.6667 77.0729 12.3776 77.125 12.0547H78.4688ZM83.2891 16.12H99.2891V0.12H83.2891V16.12ZM104.797 6.63281H108.359C109.38 6.63281 110.143 6.82292 110.648 7.20312C111.159 7.58333 111.414 8.13542 111.414 8.85938C111.414 9.24479 111.32 9.57031 111.133 9.83594C110.945 10.1016 110.698 10.3359 110.391 10.5391C110.833 10.7057 111.185 10.9453 111.445 11.2578C111.706 11.5703 111.836 11.974 111.836 12.4688C111.836 12.8594 111.771 13.2109 111.641 13.5234C111.51 13.8359 111.312 14.1016 111.047 14.3203C110.781 14.5391 110.443 14.7083 110.031 14.8281C109.625 14.9427 109.143 15 108.586 15H104.797V6.63281ZM106.234 13.8516H108.422C108.802 13.8516 109.117 13.8229 109.367 13.7656C109.622 13.7031 109.826 13.6146 109.977 13.5C110.128 13.3854 110.234 13.2474 110.297 13.0859C110.359 12.9245 110.391 12.7422 110.391 12.5391C110.391 12.3359 110.359 12.1536 110.297 11.9922C110.234 11.8255 110.128 11.6875 109.977 11.5781C109.826 11.4635 109.622 11.3776 109.367 11.3203C109.117 11.2578 108.802 11.2266 108.422 11.2266H106.234V13.8516ZM106.234 10.1719H108.406C108.891 10.1719 109.273 10.0755 109.555 9.88281C109.836 9.6901 109.977 9.39062 109.977 8.98438C109.977 8.75521 109.938 8.5651 109.859 8.41406C109.781 8.25781 109.677 8.13281 109.547 8.03906C109.417 7.94531 109.268 7.88021 109.102 7.84375C108.94 7.80208 108.773 7.78125 108.602 7.78125H106.234V10.1719ZM118.148 3.51562H119.68V9.10938L125.281 3.51562H127.422L122.641 8.14844L127.555 15H125.586L121.539 9.21094L119.68 11V15H118.148V3.51562ZM128.672 9.14062C128.688 8.63021 128.784 8.20052 128.961 7.85156C129.138 7.4974 129.378 7.21094 129.68 6.99219C129.982 6.77344 130.339 6.61719 130.75 6.52344C131.167 6.42448 131.62 6.375 132.109 6.375C132.516 6.375 132.909 6.41667 133.289 6.5C133.674 6.58333 134.016 6.71875 134.312 6.90625C134.609 7.08854 134.846 7.32812 135.023 7.625C135.206 7.91667 135.297 8.27344 135.297 8.69531V13.5625C135.297 13.6979 135.333 13.8151 135.406 13.9141C135.479 14.0078 135.596 14.0547 135.758 14.0547C135.831 14.0547 135.906 14.0495 135.984 14.0391C136.062 14.0234 136.143 14.0078 136.227 13.9922V14.9844C136.107 15.0156 135.987 15.0443 135.867 15.0703C135.753 15.0964 135.615 15.1094 135.453 15.1094C135.203 15.1094 134.987 15.0885 134.805 15.0469C134.628 15.0052 134.477 14.9375 134.352 14.8438C134.232 14.7448 134.138 14.6198 134.07 14.4688C134.003 14.3125 133.958 14.1224 133.938 13.8984C133.76 14.0911 133.573 14.2708 133.375 14.4375C133.177 14.599 132.956 14.7422 132.711 14.8672C132.466 14.987 132.193 15.0807 131.891 15.1484C131.589 15.2214 131.247 15.2578 130.867 15.2578C130.544 15.2578 130.229 15.2057 129.922 15.1016C129.62 14.9974 129.346 14.8438 129.102 14.6406C128.862 14.4375 128.669 14.1875 128.523 13.8906C128.378 13.5885 128.305 13.2396 128.305 12.8438C128.305 12.4115 128.378 12.0391 128.523 11.7266C128.669 11.4089 128.859 11.1458 129.094 10.9375C129.328 10.724 129.596 10.5599 129.898 10.4453C130.201 10.3307 130.508 10.2552 130.82 10.2188L133.172 9.92969C133.396 9.90365 133.57 9.81771 133.695 9.67188C133.826 9.52083 133.891 9.28125 133.891 8.95312C133.891 8.44792 133.724 8.08594 133.391 7.86719C133.062 7.64323 132.589 7.53125 131.969 7.53125C131.333 7.53125 130.859 7.66667 130.547 7.9375C130.234 8.20312 130.057 8.60417 130.016 9.14062H128.672ZM133.859 10.7422C133.745 10.8255 133.602 10.8958 133.43 10.9531C133.263 11.0052 133.078 11.0495 132.875 11.0859C132.672 11.1224 132.456 11.1562 132.227 11.1875C131.997 11.2135 131.768 11.2422 131.539 11.2734C131.279 11.3099 131.039 11.362 130.82 11.4297C130.602 11.4974 130.411 11.5859 130.25 11.6953C130.089 11.8047 129.964 11.9375 129.875 12.0938C129.786 12.2448 129.742 12.4245 129.742 12.6328C129.742 12.8724 129.779 13.0833 129.852 13.2656C129.93 13.4479 130.034 13.6016 130.164 13.7266C130.299 13.8516 130.461 13.9453 130.648 14.0078C130.836 14.0703 131.042 14.1016 131.266 14.1016C131.406 14.1016 131.568 14.0859 131.75 14.0547C131.932 14.0182 132.12 13.9661 132.312 13.8984C132.505 13.8307 132.693 13.7448 132.875 13.6406C133.062 13.5312 133.229 13.401 133.375 13.25C133.521 13.099 133.638 12.9271 133.727 12.7344C133.815 12.5417 133.859 12.3255 133.859 12.0859V10.7422ZM139.758 10.1641H140.484C140.677 10.1641 140.878 10.1406 141.086 10.0938C141.294 10.0469 141.484 9.97396 141.656 9.875C141.828 9.77083 141.969 9.63802 142.078 9.47656C142.193 9.3151 142.25 9.11979 142.25 8.89062C142.25 8.72396 142.214 8.5651 142.141 8.41406C142.073 8.25781 141.969 8.1224 141.828 8.00781C141.693 7.88802 141.521 7.79427 141.312 7.72656C141.104 7.65885 140.862 7.625 140.586 7.625C140.44 7.625 140.268 7.64583 140.07 7.6875C139.872 7.72917 139.677 7.80729 139.484 7.92188C139.297 8.03125 139.128 8.1901 138.977 8.39844C138.831 8.60156 138.737 8.86719 138.695 9.19531H137.352C137.388 8.82031 137.464 8.49219 137.578 8.21094C137.693 7.92448 137.836 7.67708 138.008 7.46875C138.18 7.26042 138.372 7.08594 138.586 6.94531C138.805 6.80469 139.029 6.69271 139.258 6.60938C139.492 6.52604 139.727 6.46615 139.961 6.42969C140.195 6.39323 140.419 6.375 140.633 6.375C141.008 6.375 141.378 6.42448 141.742 6.52344C142.107 6.61719 142.432 6.76302 142.719 6.96094C143.01 7.15365 143.245 7.39844 143.422 7.69531C143.599 7.99219 143.688 8.33854 143.688 8.73438C143.688 8.98958 143.651 9.21615 143.578 9.41406C143.505 9.60677 143.409 9.77604 143.289 9.92188C143.174 10.0677 143.044 10.1927 142.898 10.2969C142.753 10.3958 142.609 10.4792 142.469 10.5469V10.5859C142.615 10.612 142.776 10.6667 142.953 10.75C143.13 10.8281 143.294 10.9427 143.445 11.0938C143.596 11.2396 143.721 11.4297 143.82 11.6641C143.924 11.8932 143.977 12.1745 143.977 12.5078C143.977 12.9766 143.875 13.3828 143.672 13.7266C143.474 14.0703 143.214 14.3568 142.891 14.5859C142.568 14.8099 142.203 14.9766 141.797 15.0859C141.391 15.2005 140.982 15.2578 140.57 15.2578C140.039 15.2578 139.557 15.1901 139.125 15.0547C138.698 14.9193 138.328 14.7266 138.016 14.4766C137.703 14.2266 137.453 13.9271 137.266 13.5781C137.083 13.2292 136.974 12.8438 136.938 12.4219H138.383C138.419 12.7292 138.508 12.9844 138.648 13.1875C138.789 13.3906 138.958 13.5521 139.156 13.6719C139.354 13.7917 139.573 13.8776 139.812 13.9297C140.057 13.9818 140.305 14.0078 140.555 14.0078C141.216 14.0078 141.711 13.875 142.039 13.6094C142.372 13.3438 142.539 12.987 142.539 12.5391C142.539 12.3464 142.508 12.1745 142.445 12.0234C142.388 11.8724 142.289 11.7448 142.148 11.6406C142.008 11.5312 141.82 11.4505 141.586 11.3984C141.357 11.3411 141.07 11.3125 140.727 11.3125C140.659 11.3125 140.581 11.3151 140.492 11.3203C140.409 11.3203 140.323 11.3229 140.234 11.3281C140.151 11.3333 140.068 11.3411 139.984 11.3516C139.901 11.3568 139.826 11.362 139.758 11.3672V10.1641ZM145.578 9.14062C145.594 8.63021 145.69 8.20052 145.867 7.85156C146.044 7.4974 146.284 7.21094 146.586 6.99219C146.888 6.77344 147.245 6.61719 147.656 6.52344C148.073 6.42448 148.526 6.375 149.016 6.375C149.422 6.375 149.815 6.41667 150.195 6.5C150.581 6.58333 150.922 6.71875 151.219 6.90625C151.516 7.08854 151.753 7.32812 151.93 7.625C152.112 7.91667 152.203 8.27344 152.203 8.69531V13.5625C152.203 13.6979 152.24 13.8151 152.312 13.9141C152.385 14.0078 152.503 14.0547 152.664 14.0547C152.737 14.0547 152.812 14.0495 152.891 14.0391C152.969 14.0234 153.049 14.0078 153.133 13.9922V14.9844C153.013 15.0156 152.893 15.0443 152.773 15.0703C152.659 15.0964 152.521 15.1094 152.359 15.1094C152.109 15.1094 151.893 15.0885 151.711 15.0469C151.534 15.0052 151.383 14.9375 151.258 14.8438C151.138 14.7448 151.044 14.6198 150.977 14.4688C150.909 14.3125 150.865 14.1224 150.844 13.8984C150.667 14.0911 150.479 14.2708 150.281 14.4375C150.083 14.599 149.862 14.7422 149.617 14.8672C149.372 14.987 149.099 15.0807 148.797 15.1484C148.495 15.2214 148.154 15.2578 147.773 15.2578C147.451 15.2578 147.135 15.2057 146.828 15.1016C146.526 14.9974 146.253 14.8438 146.008 14.6406C145.768 14.4375 145.576 14.1875 145.43 13.8906C145.284 13.5885 145.211 13.2396 145.211 12.8438C145.211 12.4115 145.284 12.0391 145.43 11.7266C145.576 11.4089 145.766 11.1458 146 10.9375C146.234 10.724 146.503 10.5599 146.805 10.4453C147.107 10.3307 147.414 10.2552 147.727 10.2188L150.078 9.92969C150.302 9.90365 150.477 9.81771 150.602 9.67188C150.732 9.52083 150.797 9.28125 150.797 8.95312C150.797 8.44792 150.63 8.08594 150.297 7.86719C149.969 7.64323 149.495 7.53125 148.875 7.53125C148.24 7.53125 147.766 7.66667 147.453 7.9375C147.141 8.20312 146.964 8.60417 146.922 9.14062H145.578ZM150.766 10.7422C150.651 10.8255 150.508 10.8958 150.336 10.9531C150.169 11.0052 149.984 11.0495 149.781 11.0859C149.578 11.1224 149.362 11.1562 149.133 11.1875C148.904 11.2135 148.674 11.2422 148.445 11.2734C148.185 11.3099 147.945 11.362 147.727 11.4297C147.508 11.4974 147.318 11.5859 147.156 11.6953C146.995 11.8047 146.87 11.9375 146.781 12.0938C146.693 12.2448 146.648 12.4245 146.648 12.6328C146.648 12.8724 146.685 13.0833 146.758 13.2656C146.836 13.4479 146.94 13.6016 147.07 13.7266C147.206 13.8516 147.367 13.9453 147.555 14.0078C147.742 14.0703 147.948 14.1016 148.172 14.1016C148.312 14.1016 148.474 14.0859 148.656 14.0547C148.839 14.0182 149.026 13.9661 149.219 13.8984C149.411 13.8307 149.599 13.7448 149.781 13.6406C149.969 13.5312 150.135 13.401 150.281 13.25C150.427 13.099 150.544 12.9271 150.633 12.7344C150.721 12.5417 150.766 12.3255 150.766 12.0859V10.7422ZM154.5 6.63281H155.938V10.0078H159.844V6.63281H161.289V15H159.844V11.2578H155.938V15H154.5V6.63281ZM163.406 6.63281H164.844V13.0469H164.875L168.984 6.63281H170.633V15H169.188V8.58594H169.156L165.055 15H163.406V6.63281Z" fill="#83807C"/>
</svg>
