<svg width="287" height="40" viewBox="0 0 287 40" fill="none" xmlns="http://www.w3.org/2000/svg">
<path fill-rule="evenodd" clip-rule="evenodd" d="M8.60563 16.0874H13.2834V30.9093H8.60563V16.0874ZM10.8252 14.2336H10.7915C9.09781 14.2336 8 13.1006 8 11.6643C8 10.1999 9.13025 9.09087 10.8575 9.09087C12.5833 9.09087 13.6445 10.1971 13.6783 11.6602C13.6783 13.0964 12.5833 14.2336 10.8251 14.2336H10.8252ZM32 30.9091H26.6937V23.2391C26.6937 21.2315 25.8641 19.8609 24.0395 19.8609C22.6439 19.8609 21.8679 20.7858 21.5064 21.677C21.371 21.9969 21.3939 22.4426 21.3939 22.8882V30.9089H16.1394V16.0871H21.3942V18.4132C21.7047 17.3962 23.3836 15.9446 26.0636 15.9446C29.3879 15.9446 31.9998 18.0764 31.9998 22.6674V30.9089L32 30.9091Z" fill="#007EBB"/>
<g clip-path="url(#clip0_3_385)">
<path fill-rule="evenodd" clip-rule="evenodd" d="M80 12.3676C79.1038 12.7757 78.1502 13.0436 77.1727 13.1621C78.1897 12.5381 78.9702 11.5484 79.3379 10.3698C78.3854 10.9477 77.3335 11.3681 76.2091 11.5934C75.3132 10.6128 74.0326 10.0001 72.6155 10.0001C69.898 10.0001 67.6936 12.2607 67.6936 15.0489C67.6936 15.4445 67.7358 15.8289 67.8204 16.1988C63.7282 15.9875 60.1006 13.9797 57.6687 10.9216C57.245 11.6697 57.0024 12.5379 57.0024 13.4626C57.0024 15.2135 57.8716 16.7589 59.1929 17.6649C58.3872 17.6405 57.6264 17.4106 56.9617 17.0349V17.0967C56.9617 19.5436 58.6591 21.5849 60.913 22.0473C60.5005 22.1658 60.065 22.2251 59.6156 22.2251C59.3044 22.2254 58.9939 22.1954 58.6885 22.1354C59.3154 24.1406 61.1326 25.601 63.2879 25.6398C61.6031 26.9949 59.4789 27.8022 57.1728 27.8022C56.7753 27.8022 56.3825 27.7792 55.9979 27.7329C58.1772 29.1629 60.7664 29.9994 63.5457 29.9994C72.6039 29.9994 77.5552 22.307 77.5552 15.6346C77.5552 15.4164 77.5509 15.1983 77.5424 14.9802C78.505 14.2681 79.3405 13.3797 79.9983 12.3671" fill="#00AAEC"/>
</g>
<g clip-path="url(#clip1_3_385)">
<path fill-rule="evenodd" clip-rule="evenodd" d="M115.999 8.24994C109.373 8.24994 104 13.6438 104 20.2981C104 25.6201 107.438 30.1357 112.207 31.7291C112.807 31.8416 113.026 31.4677 113.026 31.1486L113.01 29.0998C109.671 29.8278 108.967 27.4846 108.967 27.4846C108.422 26.0934 107.635 25.7227 107.635 25.7227C106.546 24.9749 107.718 24.9901 107.718 24.9901C108.921 25.0753 109.555 26.2318 109.555 26.2318C110.626 28.073 112.364 27.5413 113.048 27.2324C113.157 26.4539 113.467 25.9229 113.81 25.6199C111.145 25.3158 108.344 24.2827 108.344 19.6663C108.344 18.3508 108.811 17.2756 109.579 16.433C109.456 16.1281 109.044 14.9038 109.696 13.2449C109.696 13.2449 110.704 12.9211 112.996 14.4798C113.954 14.2124 114.98 14.0793 116.001 14.0739C117.02 14.0791 118.047 14.2126 119.005 14.4798C121.296 12.9211 122.302 13.2449 122.302 13.2449C122.956 14.9038 122.545 16.1281 122.421 16.433C123.19 17.2756 123.654 18.3508 123.654 19.6663C123.654 24.2938 120.849 25.3128 118.176 25.6109C118.606 25.9829 118.99 26.7178 118.99 27.8422L118.975 31.1471C118.975 31.4696 119.191 31.8446 119.8 31.7261C124.565 30.1314 128 25.6188 128 20.2981C128 13.6438 122.627 8.24994 115.999 8.24994Z" fill="#3E75C3"/>
</g>
<path fill-rule="evenodd" clip-rule="evenodd" d="M171.123 17.8062L165.74 9.97587L164.053 11.1159L169.437 18.944L171.123 17.804L171.123 17.8062ZM169.105 19.2237L160.875 14.4082L159.838 16.1506L168.068 20.9645L169.105 19.2217L169.105 19.2237ZM167.9 21.5384L158.673 19.0769L158.143 21.0312L167.371 23.4912L167.9 21.5367V21.5384ZM167.273 24.1775L157.758 23.3081L157.571 25.3237L167.086 26.1922L167.273 24.1775ZM173.5 17.3337L171.866 8L169.854 8.34594L171.489 17.6816L173.5 17.3356V17.3337ZM167.043 28.7962L157.487 28.8007L157.487 26.777L167.042 26.7721L167.043 28.7962Z" fill="#FF810F"/>
<path fill-rule="evenodd" clip-rule="evenodd" d="M168.666 22.1394V30.4124H156.133V22.1394H154.5V32H170.29V22.1394H168.666Z" fill="#BEBCBC"/>
<path d="M218.75 27.5H205.25C202.775 27.5 200.75 25.475 200.75 23V17C200.75 14.525 202.775 12.5 205.25 12.5H218.75C221.225 12.5 223.25 14.525 223.25 17V23C223.25 25.475 221.225 27.5 218.75 27.5Z" fill="#C2191E"/>
<path d="M209 23.75V16.25L216.5 20L209 23.75Z" fill="white"/>
<defs>
<clipPath id="clip0_3_385">
<rect width="24" height="24" fill="white" transform="translate(56 8)"/>
</clipPath>
<clipPath id="clip1_3_385">
<rect width="24" height="24" fill="white" transform="translate(104 8)"/>
</clipPath>
</defs>
</svg>
